<svg id="visual" viewBox="0 0 960 540" width="960" height="540" xmlns="http://www.w3.org/2000/svg" xmlns:xlink="http://www.w3.org/1999/xlink" version="1.1"><rect x="0" y="0" width="960" height="540" fill="#001220"></rect><defs><linearGradient id="grad1_0" x1="43.8%" y1="0%" x2="100%" y2="100%"><stop offset="14.444444444444446%" stop-color="#715df2" stop-opacity="1"></stop><stop offset="85.55555555555554%" stop-color="#715df2" stop-opacity="1"></stop></linearGradient></defs><defs><linearGradient id="grad1_1" x1="43.8%" y1="0%" x2="100%" y2="100%"><stop offset="14.444444444444446%" stop-color="#715df2" stop-opacity="1"></stop><stop offset="85.55555555555554%" stop-color="#004cae" stop-opacity="1"></stop></linearGradient></defs><defs><linearGradient id="grad1_2" x1="43.8%" y1="0%" x2="100%" y2="100%"><stop offset="14.444444444444446%" stop-color="#003165" stop-opacity="1"></stop><stop offset="85.55555555555554%" stop-color="#004cae" stop-opacity="1"></stop></linearGradient></defs><defs><linearGradient id="grad1_3" x1="43.8%" y1="0%" x2="100%" y2="100%"><stop offset="14.444444444444446%" stop-color="#003165" stop-opacity="1"></stop><stop offset="85.55555555555554%" stop-color="#001220" stop-opacity="1"></stop></linearGradient></defs><defs><linearGradient id="grad2_0" x1="0%" y1="0%" x2="56.3%" y2="100%"><stop offset="14.444444444444446%" stop-color="#715df2" stop-opacity="1"></stop><stop offset="85.55555555555554%" stop-color="#715df2" stop-opacity="1"></stop></linearGradient></defs><defs><linearGradient id="grad2_1" x1="0%" y1="0%" x2="56.3%" y2="100%"><stop offset="14.444444444444446%" stop-color="#004cae" stop-opacity="1"></stop><stop offset="85.55555555555554%" stop-color="#715df2" stop-opacity="1"></stop></linearGradient></defs><defs><linearGradient id="grad2_2" x1="0%" y1="0%" x2="56.3%" y2="100%"><stop offset="14.444444444444446%" stop-color="#004cae" stop-opacity="1"></stop><stop offset="85.55555555555554%" stop-color="#003165" stop-opacity="1"></stop></linearGradient></defs><defs><linearGradient id="grad2_3" x1="0%" y1="0%" x2="56.3%" y2="100%"><stop offset="14.444444444444446%" stop-color="#001220" stop-opacity="1"></stop><stop offset="85.55555555555554%" stop-color="#003165" stop-opacity="1"></stop></linearGradient></defs><g transform="translate(960, 0)"><path d="M0 405C-46 386.6 -92 368.1 -146.2 352.9C-200.3 337.7 -262.7 325.8 -286.4 286.4C-310.1 247 -295.2 180.1 -308.6 127.8C-321.9 75.5 -363.5 37.8 -405 0L0 0Z" fill="#002241"></path><path d="M0 303.8C-34.5 289.9 -69 276.1 -109.6 264.7C-150.3 253.3 -197 244.3 -214.8 214.8C-232.6 185.2 -221.4 135.1 -231.4 95.9C-241.4 56.6 -272.6 28.3 -303.7 0L0 0Z" fill="#003f8a"></path><path d="M0 202.5C-23 193.3 -46 184.1 -73.1 176.5C-100.2 168.9 -131.3 162.9 -143.2 143.2C-155.1 123.5 -147.6 90.1 -154.3 63.9C-161 37.8 -181.7 18.9 -202.5 0L0 0Z" fill="#4056d1"></path><path d="M0 101.3C-11.5 96.6 -23 92 -36.5 88.2C-50.1 84.4 -65.7 81.4 -71.6 71.6C-77.5 61.7 -73.8 45 -77.1 32C-80.5 18.9 -90.9 9.4 -101.2 0L0 0Z" fill="#715df2"></path></g><g transform="translate(0, 540)"><path d="M0 -405C45.1 -382.1 90.3 -359.2 142.4 -343.7C194.4 -328.2 253.4 -320 286.4 -286.4C319.4 -252.7 326.4 -193.6 341.8 -141.6C357.3 -89.6 381.1 -44.8 405 0L0 0Z" fill="#002241"></path><path d="M0 -303.7C33.9 -286.6 67.7 -269.4 106.8 -257.8C145.8 -246.1 190 -240 214.8 -214.8C239.5 -189.5 244.8 -145.2 256.4 -106.2C268 -67.2 285.9 -33.6 303.8 0L0 0Z" fill="#003f8a"></path><path d="M0 -202.5C22.6 -191.1 45.1 -179.6 71.2 -171.8C97.2 -164.1 126.7 -160 143.2 -143.2C159.7 -126.4 163.2 -96.8 170.9 -70.8C178.6 -44.8 190.6 -22.4 202.5 0L0 0Z" fill="#4056d1"></path><path d="M0 -101.2C11.3 -95.5 22.6 -89.8 35.6 -85.9C48.6 -82 63.3 -80 71.6 -71.6C79.8 -63.2 81.6 -48.4 85.5 -35.4C89.3 -22.4 95.3 -11.2 101.3 0L0 0Z" fill="#715df2"></path></g></svg>