<svg id="visual" viewBox="0 0 960 540" width="960" height="540" xmlns="http://www.w3.org/2000/svg" xmlns:xlink="http://www.w3.org/1999/xlink" version="1.1"><rect x="0" y="0" width="960" height="540" fill="#001122"></rect><path d="M0 388L320 422L640 349L960 408L960 541L640 541L320 541L0 541Z" fill="#715df2"></path><path d="M0 422L320 369L640 408L960 424L960 541L640 541L320 541L0 541Z" fill="#6b4bf8"></path><path d="M0 439L320 424L640 465L960 419L960 541L640 541L320 541L0 541Z" fill="#6733fc"></path><path d="M0 462L320 460L640 454L960 469L960 541L640 541L320 541L0 541Z" fill="#6600ff"></path></svg>